<svg xmlns="http://www.w3.org/2000/svg" viewBox="0 0 1222 968">
  <defs>
    <mask id="eyes-cute-left">
      <rect width="100%" height="100%" fill="white"/>

    </mask>
    <mask id="eyes-cute-right">
      <rect width="100%" height="100%" fill="white"/>

    </mask>
    <mask id="eyes-stroke">
      <rect width="100%" height="100%" fill="white"/>
      <circle cx="811.828" cy="529.765" r="220.172" fill="black"/>
      <circle cx="410.172" cy="529.235" r="220.172" fill="black"/>
    </mask>
  </defs>
  <path id="Form_2_Kopie" class="cls-1" mask="url(#eyes-stroke)" fill="inherit" d="M214.938,121.618a114.652,114.652,0,0,0-38.33,8.518c19.485-15.839,108.2-80.487,256.259-62.172,7.27-.858,6.351-4.009,6.351-4.009s-4.5-5.153-28.281-7.968c28.8-1.791,93.509-1.561,198.322,11.976,13.335,2.039,19.869-.288,35.327-4.009,15.4-3.707,102.025-12.385,192.59-11.927-5.223,4.859-15.643,8.106-22.428,11.927,17.567,1.188,150.359-19.009,259.812,66.181-11.61-3.028-13.33-4.878-31.93-8.518-4.62,3.092,18.19,27.57,25.75,38.909,6.9,10.355,42.07,55.6,61.88,116.462-9.59-11.163-31.43-33.138-39.3-33.927s1.52,26.187,7.73,38.862c4.28,8.748,47.63,85.034,95.11,291.926-15.82-15.642-26.2-32.2-37.23-37.642-2.16,8.874,106.19,163.167,48.51,322.006-5.03-3.167-3.46-36.916-15.8-39.1-12.17-2.15-64.28,129.382-161.75,137.709-0.88-14.229,4.33-28.994-11.69-25.313-16.071,3.69-73.156,33.924-382.075,25.313-9.2-6.4-22.009-30.448-42.8,0-18.625,8.4-117.094,29.738-389.562-25.313-12.441-1.148-18.156,11.946-12.759,25.313C177.32,955.578,62.237,901.076,47.238,826.848c-2.817-9.9-23.571-18.789-23.715,31.366-15.875-9.131-63.8-134.454,50.846-309.588,4.883-9.112-3.117-18.2-35.783,25.224,9.4-41.316,49.046-222.2,120.966-321.2,0.6-6.234-6.318-14.19-44.861,24.343C121.811,253.838,137.627,188.938,214.938,121.618Z"/>
  <path id="Haar" d="M554,93S593.743,1.594,730.526,0c-27.7,12.707-110.2,67.965-19.448,80s-23.936,25-23.936,25Z" fill="inherit"/>
  <circle id="Ellipse_3_Kopie-2" data-name="Ellipse 3 Kopie" cx="351.844" cy="497.14" r="70.594" fill="inherit"/>
  <circle id="Ellipse_3_Kopie" data-name="Ellipse 3 Kopie" cx="870.156" cy="496.672" r="70.594" fill="inherit"/>
</svg>
